Coordinates
version=1
nRows=5
nColumns=40
inDegrees=yes

Units are S.I. units (second, meters, Newtons, ...)
Angles are in degrees.

endheader
time	pelvis_tilt	pelvis_list	pelvis_rotation	pelvis_tx	pelvis_ty	pelvis_tz	hip_flexion_r	hip_adduction_r	hip_rotation_r	knee_angle_r	knee_angle_r_beta	ankle_angle_r	subtalar_angle_r	mtp_angle_r	hip_flexion_l	hip_adduction_l	hip_rotation_l	knee_angle_l	knee_angle_l_beta	ankle_angle_l	subtalar_angle_l	mtp_angle_l	lumbar_extension	lumbar_bending	lumbar_rotation	arm_flex_r	arm_add_r	arm_rot_r	elbow_flex_r	pro_sup_r	wrist_flex_r	wrist_dev_r	arm_flex_l	arm_add_l	arm_rot_l	elbow_flex_l	pro_sup_l	wrist_flex_l	wrist_dev_l
      0.62000000	     -3.67631755	     -1.58175385	     -3.56534931	     -0.13970105	      0.88744880	      1.49060772	     -5.66230667	      1.06556531	    -14.25812434	    -18.10158454	     -0.31593225	      8.83102761	      3.48849214	     -4.67106466	     33.84949413	      4.54369069	     11.37652833	    -30.55583568	     -0.53329994	      7.82456546	     15.23865461	     15.04428753	     -2.74075793	      1.78834731	      2.73518162	      4.29934181	    -12.44729412	     -8.21153759	     52.12969092	     89.95437384	      0.00000000	      0.00000000	    -12.01801301	      5.94241146	     20.23591437	     21.73102326	     89.95437384	      0.00000000	      0.00000000
      0.63000000	     -4.11236371	     -1.82544347	     -3.77901200	     -0.12649709	      0.88539583	      1.49067127	     -5.98876721	      1.18489593	    -14.03558359	    -18.36437226	     -0.32051876	      8.41160760	      3.68597509	     -4.65160144	     34.60480728	      4.77754673	     11.59222298	    -28.19252997	     -0.49205247	      7.93749789	     14.12937613	     14.63620578	     -2.32441187	      2.00814961	      2.92688680	      4.45724157	    -12.66092487	     -7.96343442	     53.33803669	     89.95437384	      0.00000000	      0.00000000	    -12.47412257	      5.87208628	     20.29178190	     21.56345643	     89.95437384	      0.00000000	      0.00000000
      0.64000000	     -4.15472678	     -1.75157164	     -4.15512456	     -0.11250070	      0.88393099	      1.49070615	     -6.73131956	      0.84365351	    -13.76022721	    -18.63299207	     -0.32520706	      8.07352267	      4.16305249	     -4.80267694	     34.79313264	      4.95962504	     12.98338131	    -26.15817828	     -0.45654634	      7.62637858	     12.44462295	     13.79739852	     -2.24316710	      1.85753106	      3.35318948	      4.51693091	    -12.76943777	     -7.96231854	     54.41804583	     89.95437384	      0.00000000	      0.00000000	    -12.67760717	      5.82283721	     20.56154430	     21.02921931	     89.95437384	      0.00000000	      0.00000000
      0.65000000	     -4.42272350	     -1.81973312	     -4.35115200	     -0.09888418	      0.88201762	      1.49050132	     -7.08726451	      0.72204315	    -13.34635284	    -19.15752442	     -0.33436188	      7.45833766	      4.38886342	     -4.84363401	     35.39698386	      5.17018529	     14.15129446	    -24.76434127	     -0.43221929	      7.26072374	     11.24448135	     13.15611405	     -1.98769612	      1.85365351	      3.56620741	      4.55428221	    -12.94479661	     -7.79056461	     55.50580019	     89.95437384	      0.00000000	      0.00000000	    -12.93951760	      5.80408236	     20.75478437	     20.82718200	     89.95437384	      0.00000000	      0.00000000
      0.66000000	     -4.67183150	     -1.81094340	     -4.68644409	     -0.08468911	      0.88012236	      1.49028646	     -7.42695218	      0.44816198	    -12.89751212	    -19.73044269	     -0.34436119	      6.90613681	      4.43933614	     -4.84303558	     35.85983283	      5.32750511	     15.30859859	    -23.79418390	     -0.41528685	      7.11826998	     10.36114389	     12.65226579	     -1.66482452	      1.76732883	      3.89011764	      4.46593330	    -13.16449532	     -7.53687576	     56.52830163	     89.95437384	      0.00000000	      0.00000000	    -13.22331570	      5.76404144	     20.99877008	     20.66897959	     89.95437384	      0.00000000	      0.00000000
